<mxfile host="app.diagrams.net" modified="2023-11-15T17:01:47.446Z" agent="Mozilla/5.0 (Windows NT 10.0; Win64; x64) AppleWebKit/537.36 (KHTML, like Gecko) Chrome/119.0.0.0 Safari/537.36" etag="X1RWzla-MQUe1V-wtlNo" version="22.1.1" type="device">
  <diagram name="Seite-1" id="c0mPKitquXfCgPa_JEeb">
    <mxGraphModel dx="2926" dy="2645" grid="1" gridSize="10" guides="1" tooltips="1" connect="1" arrows="1" fold="1" page="1" pageScale="1" pageWidth="827" pageHeight="1169" math="0" shadow="0">
      <root>
        <mxCell id="0" />
        <mxCell id="1" parent="0" />
        <mxCell id="jddybm86GnX8df0sJxGK-30" value="" style="group" vertex="1" connectable="0" parent="1">
          <mxGeometry x="870" y="-10" width="200" height="180" as="geometry" />
        </mxCell>
        <object placeholders="1" c4Type="" c4Container="Big Data Platform" c4Technology="Spark" c4Description=" " label="&lt;font style=&quot;font-size: 16px&quot;&gt;&lt;b&gt;%c4Type%&lt;/b&gt;&lt;/font&gt;&lt;div&gt;[%c4Container%:&amp;nbsp;%c4Technology%]&lt;/div&gt;&lt;br&gt;&lt;div&gt;&lt;font style=&quot;font-size: 11px&quot;&gt;&lt;font color=&quot;#E6E6E6&quot;&gt;%c4Description%&lt;/font&gt;&lt;/div&gt;" id="jddybm86GnX8df0sJxGK-12">
          <mxCell style="shape=hexagon;size=50;perimeter=hexagonPerimeter2;whiteSpace=wrap;html=1;fixedSize=1;rounded=1;labelBackgroundColor=none;fillColor=#99CCFF;fontSize=12;fontColor=#ffffff;align=center;strokeColor=#0E7DAD;metaEdit=1;points=[[0.5,0,0],[1,0.25,0],[1,0.5,0],[1,0.75,0],[0.5,1,0],[0,0.75,0],[0,0.5,0],[0,0.25,0]];resizable=0;" vertex="1" parent="jddybm86GnX8df0sJxGK-30">
            <mxGeometry y="10" width="200" height="170" as="geometry" />
          </mxCell>
        </object>
        <mxCell id="jddybm86GnX8df0sJxGK-14" value="" style="shape=image;verticalLabelPosition=bottom;labelBackgroundColor=default;verticalAlign=top;aspect=fixed;imageAspect=0;image=https://cdn.icon-icons.com/icons2/2699/PNG/512/apache_spark_logo_icon_170561.png;" vertex="1" parent="jddybm86GnX8df0sJxGK-30">
          <mxGeometry x="21" width="159" height="79.5" as="geometry" />
        </mxCell>
        <mxCell id="jddybm86GnX8df0sJxGK-31" value="" style="group" vertex="1" connectable="0" parent="1">
          <mxGeometry x="1460" y="-1" width="200" height="170" as="geometry" />
        </mxCell>
        <object placeholders="1" c4Type="" c4Container="Message Broker" c4Technology="Kafka" c4Description=" " label="&lt;font style=&quot;font-size: 16px&quot;&gt;&lt;b&gt;%c4Type%&lt;/b&gt;&lt;/font&gt;&lt;div&gt;[%c4Container%:&amp;nbsp;%c4Technology%]&lt;/div&gt;&lt;br&gt;&lt;div&gt;&lt;font style=&quot;font-size: 11px&quot;&gt;&lt;font color=&quot;#E6E6E6&quot;&gt;%c4Description%&lt;/font&gt;&lt;/div&gt;" id="jddybm86GnX8df0sJxGK-8">
          <mxCell style="shape=hexagon;size=50;perimeter=hexagonPerimeter2;whiteSpace=wrap;html=1;fixedSize=1;rounded=1;labelBackgroundColor=none;fillColor=#99CCFF;fontSize=12;fontColor=#ffffff;align=center;strokeColor=#0E7DAD;metaEdit=1;points=[[0.5,0,0],[1,0.25,0],[1,0.5,0],[1,0.75,0],[0.5,1,0],[0,0.75,0],[0,0.5,0],[0,0.25,0]];resizable=0;" vertex="1" parent="jddybm86GnX8df0sJxGK-31">
            <mxGeometry width="200" height="170" as="geometry" />
          </mxCell>
        </object>
        <mxCell id="jddybm86GnX8df0sJxGK-9" value="" style="shape=image;verticalLabelPosition=bottom;labelBackgroundColor=default;verticalAlign=top;aspect=fixed;imageAspect=0;image=https://seeklogo.com/images/S/superset-icon-logo-D70353ADD5-seeklogo.com.png;" vertex="1" parent="jddybm86GnX8df0sJxGK-31">
          <mxGeometry x="60.24000000000001" y="20" width="79.53" height="39.5" as="geometry" />
        </mxCell>
        <mxCell id="jddybm86GnX8df0sJxGK-32" value="" style="group" vertex="1" connectable="0" parent="1">
          <mxGeometry x="870" y="-370" width="200" height="180" as="geometry" />
        </mxCell>
        <object placeholders="1" c4Type="" c4Container="Message Broker" c4Technology="Kafka" c4Description=" " label="&lt;font style=&quot;font-size: 16px&quot;&gt;&lt;b&gt;%c4Type%&lt;/b&gt;&lt;/font&gt;&lt;div&gt;[%c4Container%:&amp;nbsp;%c4Technology%]&lt;/div&gt;&lt;br&gt;&lt;div&gt;&lt;font style=&quot;font-size: 11px&quot;&gt;&lt;font color=&quot;#E6E6E6&quot;&gt;%c4Description%&lt;/font&gt;&lt;/div&gt;" id="jddybm86GnX8df0sJxGK-4">
          <mxCell style="shape=hexagon;size=50;perimeter=hexagonPerimeter2;whiteSpace=wrap;html=1;fixedSize=1;rounded=1;labelBackgroundColor=none;fillColor=#99CCFF;fontSize=12;fontColor=#ffffff;align=center;strokeColor=#0E7DAD;metaEdit=1;points=[[0.5,0,0],[1,0.25,0],[1,0.5,0],[1,0.75,0],[0.5,1,0],[0,0.75,0],[0,0.5,0],[0,0.25,0]];resizable=0;" vertex="1" parent="jddybm86GnX8df0sJxGK-32">
            <mxGeometry y="10" width="200" height="170" as="geometry" />
          </mxCell>
        </object>
        <mxCell id="jddybm86GnX8df0sJxGK-3" value="" style="shape=image;verticalLabelPosition=bottom;labelBackgroundColor=default;verticalAlign=top;aspect=fixed;imageAspect=0;image=https://upload.wikimedia.org/wikipedia/commons/thumb/0/0a/Apache_kafka-icon.svg/1200px-Apache_kafka-icon.svg.png;" vertex="1" parent="jddybm86GnX8df0sJxGK-32">
          <mxGeometry x="65.01000000000002" width="70" height="70" as="geometry" />
        </mxCell>
        <mxCell id="jddybm86GnX8df0sJxGK-33" value="" style="group" vertex="1" connectable="0" parent="1">
          <mxGeometry x="1454" y="-380" width="200" height="190" as="geometry" />
        </mxCell>
        <object placeholders="1" c4Type="" c4Container="Workflow Orchestration" c4Technology="Airflow" c4Description=" " label="&lt;font style=&quot;font-size: 16px&quot;&gt;&lt;b&gt;%c4Type%&lt;/b&gt;&lt;/font&gt;&lt;div&gt;[%c4Container%:&amp;nbsp;%c4Technology%]&lt;/div&gt;&lt;br&gt;&lt;div&gt;&lt;font style=&quot;font-size: 11px&quot;&gt;&lt;font color=&quot;#E6E6E6&quot;&gt;%c4Description%&lt;/font&gt;&lt;/div&gt;" id="jddybm86GnX8df0sJxGK-5">
          <mxCell style="shape=hexagon;size=50;perimeter=hexagonPerimeter2;whiteSpace=wrap;html=1;fixedSize=1;rounded=1;labelBackgroundColor=none;fillColor=#99CCFF;fontSize=12;fontColor=#ffffff;align=center;strokeColor=#0E7DAD;metaEdit=1;points=[[0.5,0,0],[1,0.25,0],[1,0.5,0],[1,0.75,0],[0.5,1,0],[0,0.75,0],[0,0.5,0],[0,0.25,0]];resizable=0;" vertex="1" parent="jddybm86GnX8df0sJxGK-33">
            <mxGeometry y="20" width="200" height="170" as="geometry" />
          </mxCell>
        </object>
        <mxCell id="jddybm86GnX8df0sJxGK-7" value="" style="shape=image;verticalLabelPosition=bottom;labelBackgroundColor=default;verticalAlign=top;aspect=fixed;imageAspect=0;image=https://static-00.iconduck.com/assets.00/airflow-icon-2048x2048-ptyvisqh.png;" vertex="1" parent="jddybm86GnX8df0sJxGK-33">
          <mxGeometry x="58.31" width="80" height="80" as="geometry" />
        </mxCell>
        <mxCell id="jddybm86GnX8df0sJxGK-34" value="" style="group" vertex="1" connectable="0" parent="1">
          <mxGeometry x="-145" y="-26" width="200" height="170" as="geometry" />
        </mxCell>
        <object placeholders="1" c4Type="" c4Container="ML-Lifecycle Platform" c4Technology="mlflow" c4Description=" " label="&lt;font style=&quot;font-size: 16px&quot;&gt;&lt;b&gt;%c4Type%&lt;/b&gt;&lt;/font&gt;&lt;div&gt;[%c4Container%:&amp;nbsp;%c4Technology%]&lt;/div&gt;&lt;br&gt;&lt;div&gt;&lt;font style=&quot;font-size: 11px&quot;&gt;&lt;font color=&quot;#E6E6E6&quot;&gt;%c4Description%&lt;/font&gt;&lt;/div&gt;" id="jddybm86GnX8df0sJxGK-15">
          <mxCell style="shape=hexagon;size=50;perimeter=hexagonPerimeter2;whiteSpace=wrap;html=1;fixedSize=1;rounded=1;labelBackgroundColor=none;fillColor=#99CCFF;fontSize=12;fontColor=#ffffff;align=center;strokeColor=#0E7DAD;metaEdit=1;points=[[0.5,0,0],[1,0.25,0],[1,0.5,0],[1,0.75,0],[0.5,1,0],[0,0.75,0],[0,0.5,0],[0,0.25,0]];resizable=0;" vertex="1" parent="jddybm86GnX8df0sJxGK-34">
            <mxGeometry width="200" height="170" as="geometry" />
          </mxCell>
        </object>
        <mxCell id="jddybm86GnX8df0sJxGK-19" value="" style="shape=image;verticalLabelPosition=bottom;labelBackgroundColor=default;verticalAlign=top;aspect=fixed;imageAspect=0;image=https://raw.githubusercontent.com/mlflow/mlflow/master/docs/source/_static/MLflow-logo-final-black.png;" vertex="1" parent="jddybm86GnX8df0sJxGK-34">
          <mxGeometry x="45" y="20" width="110" height="40.33" as="geometry" />
        </mxCell>
        <mxCell id="jddybm86GnX8df0sJxGK-35" value="" style="group" vertex="1" connectable="0" parent="1">
          <mxGeometry x="550" y="-375" width="200" height="180" as="geometry" />
        </mxCell>
        <object placeholders="1" c4Type="" c4Container="Logging Server" c4Technology="Loki" c4Description=" " label="&lt;font style=&quot;font-size: 16px&quot;&gt;&lt;b&gt;%c4Type%&lt;/b&gt;&lt;/font&gt;&lt;div&gt;[%c4Container%:&amp;nbsp;%c4Technology%]&lt;/div&gt;&lt;br&gt;&lt;div&gt;&lt;font style=&quot;font-size: 11px&quot;&gt;&lt;font color=&quot;#E6E6E6&quot;&gt;%c4Description%&lt;/font&gt;&lt;/div&gt;" id="jddybm86GnX8df0sJxGK-22">
          <mxCell style="shape=hexagon;size=50;perimeter=hexagonPerimeter2;whiteSpace=wrap;html=1;fixedSize=1;rounded=1;labelBackgroundColor=none;fillColor=#99CCFF;fontSize=12;fontColor=#ffffff;align=center;strokeColor=#0E7DAD;metaEdit=1;points=[[0.5,0,0],[1,0.25,0],[1,0.5,0],[1,0.75,0],[0.5,1,0],[0,0.75,0],[0,0.5,0],[0,0.25,0]];resizable=0;" vertex="1" parent="jddybm86GnX8df0sJxGK-35">
            <mxGeometry y="10" width="200" height="170" as="geometry" />
          </mxCell>
        </object>
        <mxCell id="jddybm86GnX8df0sJxGK-23" value="" style="shape=image;verticalLabelPosition=bottom;labelBackgroundColor=default;verticalAlign=top;aspect=fixed;imageAspect=0;image=https://grafana.com/docs/loki/latest/logo_and_name.png;" vertex="1" parent="jddybm86GnX8df0sJxGK-35">
          <mxGeometry x="46.539999999999964" width="106.92" height="63.2" as="geometry" />
        </mxCell>
        <mxCell id="jddybm86GnX8df0sJxGK-36" value="" style="group" vertex="1" connectable="0" parent="1">
          <mxGeometry x="550" y="-20" width="200" height="190" as="geometry" />
        </mxCell>
        <object placeholders="1" c4Type="" c4Container="Notebook Service" c4Technology="Jupyter" c4Description=" " label="&lt;font style=&quot;font-size: 16px&quot;&gt;&lt;b&gt;%c4Type%&lt;/b&gt;&lt;/font&gt;&lt;div&gt;[%c4Container%:&amp;nbsp;%c4Technology%]&lt;/div&gt;&lt;br&gt;&lt;div&gt;&lt;font style=&quot;font-size: 11px&quot;&gt;&lt;font color=&quot;#E6E6E6&quot;&gt;%c4Description%&lt;/font&gt;&lt;/div&gt;" id="jddybm86GnX8df0sJxGK-21">
          <mxCell style="shape=hexagon;size=50;perimeter=hexagonPerimeter2;whiteSpace=wrap;html=1;fixedSize=1;rounded=1;labelBackgroundColor=none;fillColor=#99CCFF;fontSize=12;fontColor=#ffffff;align=center;strokeColor=#0E7DAD;metaEdit=1;points=[[0.5,0,0],[1,0.25,0],[1,0.5,0],[1,0.75,0],[0.5,1,0],[0,0.75,0],[0,0.5,0],[0,0.25,0]];resizable=0;" vertex="1" parent="jddybm86GnX8df0sJxGK-36">
            <mxGeometry y="20" width="200" height="170" as="geometry" />
          </mxCell>
        </object>
        <mxCell id="jddybm86GnX8df0sJxGK-20" value="" style="shape=image;verticalLabelPosition=bottom;labelBackgroundColor=default;verticalAlign=top;aspect=fixed;imageAspect=0;image=https://upload.wikimedia.org/wikipedia/commons/thumb/3/38/Jupyter_logo.svg/883px-Jupyter_logo.svg.png;" vertex="1" parent="jddybm86GnX8df0sJxGK-36">
          <mxGeometry x="63.99000000000001" width="72.02" height="83.45" as="geometry" />
        </mxCell>
        <mxCell id="jddybm86GnX8df0sJxGK-37" value="" style="group" vertex="1" connectable="0" parent="1">
          <mxGeometry x="1130" y="-6" width="240" height="150" as="geometry" />
        </mxCell>
        <object placeholders="1" c4Type="" c4Container="SQL-Backend" c4Technology="Postgres" c4Description="" label="&lt;font style=&quot;font-size: 16px&quot;&gt;&lt;b&gt;%c4Type%&lt;/b&gt;&lt;/font&gt;&lt;div&gt;[%c4Container%:&amp;nbsp;%c4Technology%]&lt;/div&gt;&lt;br&gt;&lt;div&gt;&lt;font style=&quot;font-size: 11px&quot;&gt;&lt;font color=&quot;#E6E6E6&quot;&gt;%c4Description%&lt;/font&gt;&lt;/div&gt;" id="jddybm86GnX8df0sJxGK-11">
          <mxCell style="shape=cylinder3;size=15;whiteSpace=wrap;html=1;boundedLbl=1;rounded=0;labelBackgroundColor=none;fillColor=#004C99;fontSize=12;fontColor=#ffffff;align=center;strokeColor=#0E7DAD;metaEdit=1;points=[[0.5,0,0],[1,0.25,0],[1,0.5,0],[1,0.75,0],[0.5,1,0],[0,0.75,0],[0,0.5,0],[0,0.25,0]];resizable=0;" vertex="1" parent="jddybm86GnX8df0sJxGK-37">
            <mxGeometry y="30" width="240" height="120" as="geometry" />
          </mxCell>
        </object>
        <mxCell id="jddybm86GnX8df0sJxGK-10" value="" style="shape=image;verticalLabelPosition=bottom;labelBackgroundColor=default;verticalAlign=top;aspect=fixed;imageAspect=0;image=https://cdn-icons-png.flaticon.com/512/5968/5968342.png;" vertex="1" parent="jddybm86GnX8df0sJxGK-37">
          <mxGeometry x="81.7" width="80" height="80" as="geometry" />
        </mxCell>
        <mxCell id="jddybm86GnX8df0sJxGK-38" value="" style="group" vertex="1" connectable="0" parent="1">
          <mxGeometry x="139" y="-30" width="240" height="150" as="geometry" />
        </mxCell>
        <object placeholders="1" c4Type="" c4Container="S3" c4Technology="Minio" c4Description="" label="&lt;font style=&quot;font-size: 16px&quot;&gt;&lt;b&gt;%c4Type%&lt;/b&gt;&lt;/font&gt;&lt;div&gt;[%c4Container%:&amp;nbsp;%c4Technology%]&lt;/div&gt;&lt;br&gt;&lt;div&gt;&lt;font style=&quot;font-size: 11px&quot;&gt;&lt;font color=&quot;#E6E6E6&quot;&gt;%c4Description%&lt;/font&gt;&lt;/div&gt;" id="jddybm86GnX8df0sJxGK-17">
          <mxCell style="shape=cylinder3;size=15;whiteSpace=wrap;html=1;boundedLbl=1;rounded=0;labelBackgroundColor=none;fillColor=#004C99;fontSize=12;fontColor=#ffffff;align=center;strokeColor=#0E7DAD;metaEdit=1;points=[[0.5,0,0],[1,0.25,0],[1,0.5,0],[1,0.75,0],[0.5,1,0],[0,0.75,0],[0,0.5,0],[0,0.25,0]];resizable=0;" vertex="1" parent="jddybm86GnX8df0sJxGK-38">
            <mxGeometry y="30" width="240" height="120" as="geometry" />
          </mxCell>
        </object>
        <mxCell id="jddybm86GnX8df0sJxGK-16" value="" style="shape=image;verticalLabelPosition=bottom;labelBackgroundColor=default;verticalAlign=top;aspect=fixed;imageAspect=0;image=https://blog.alexellis.io/content/images/2017/01/minio_light_cir_sm-1.png;" vertex="1" parent="jddybm86GnX8df0sJxGK-38">
          <mxGeometry x="81.7" width="80" height="80" as="geometry" />
        </mxCell>
        <mxCell id="jddybm86GnX8df0sJxGK-39" value="" style="group" vertex="1" connectable="0" parent="1">
          <mxGeometry x="139" y="-204" width="240" height="150" as="geometry" />
        </mxCell>
        <object placeholders="1" c4Type="" c4Container="In-Memory Storage" c4Technology="Redis" c4Description="" label="&lt;font style=&quot;font-size: 16px&quot;&gt;&lt;b&gt;%c4Type%&lt;/b&gt;&lt;/font&gt;&lt;div&gt;[%c4Container%:&amp;nbsp;%c4Technology%]&lt;/div&gt;&lt;br&gt;&lt;div&gt;&lt;font style=&quot;font-size: 11px&quot;&gt;&lt;font color=&quot;#E6E6E6&quot;&gt;%c4Description%&lt;/font&gt;&lt;/div&gt;" id="jddybm86GnX8df0sJxGK-25">
          <mxCell style="shape=cylinder3;size=15;whiteSpace=wrap;html=1;boundedLbl=1;rounded=0;labelBackgroundColor=none;fillColor=#004C99;fontSize=12;fontColor=#ffffff;align=center;strokeColor=#0E7DAD;metaEdit=1;points=[[0.5,0,0],[1,0.25,0],[1,0.5,0],[1,0.75,0],[0.5,1,0],[0,0.75,0],[0,0.5,0],[0,0.25,0]];resizable=0;" vertex="1" parent="jddybm86GnX8df0sJxGK-39">
            <mxGeometry y="30" width="240" height="120" as="geometry" />
          </mxCell>
        </object>
        <mxCell id="jddybm86GnX8df0sJxGK-24" value="" style="shape=image;verticalLabelPosition=bottom;labelBackgroundColor=default;verticalAlign=top;aspect=fixed;imageAspect=0;image=https://cdn4.iconfinder.com/data/icons/redis-2/1451/Untitled-2-512.png;" vertex="1" parent="jddybm86GnX8df0sJxGK-39">
          <mxGeometry x="78.31" width="83.39" height="83.39" as="geometry" />
        </mxCell>
        <mxCell id="jddybm86GnX8df0sJxGK-40" value="" style="group" vertex="1" connectable="0" parent="1">
          <mxGeometry x="140.7" y="-369" width="240" height="130" as="geometry" />
        </mxCell>
        <object placeholders="1" c4Type="" c4Container="Graphdatabase" c4Technology="neo4j" c4Description="" label="&lt;font style=&quot;font-size: 16px&quot;&gt;&lt;b&gt;%c4Type%&lt;/b&gt;&lt;/font&gt;&lt;div&gt;[%c4Container%:&amp;nbsp;%c4Technology%]&lt;/div&gt;&lt;br&gt;&lt;div&gt;&lt;font style=&quot;font-size: 11px&quot;&gt;&lt;font color=&quot;#E6E6E6&quot;&gt;%c4Description%&lt;/font&gt;&lt;/div&gt;" id="jddybm86GnX8df0sJxGK-27">
          <mxCell style="shape=cylinder3;size=15;whiteSpace=wrap;html=1;boundedLbl=1;rounded=0;labelBackgroundColor=none;fillColor=#004C99;fontSize=12;fontColor=#ffffff;align=center;strokeColor=#0E7DAD;metaEdit=1;points=[[0.5,0,0],[1,0.25,0],[1,0.5,0],[1,0.75,0],[0.5,1,0],[0,0.75,0],[0,0.5,0],[0,0.25,0]];resizable=0;" vertex="1" parent="jddybm86GnX8df0sJxGK-40">
            <mxGeometry y="10" width="240" height="120" as="geometry" />
          </mxCell>
        </object>
        <mxCell id="jddybm86GnX8df0sJxGK-29" value="" style="shape=image;verticalLabelPosition=bottom;labelBackgroundColor=default;verticalAlign=top;aspect=fixed;imageAspect=0;image=https://upload.wikimedia.org/wikipedia/commons/e/e5/Neo4j-logo_color.png;" vertex="1" parent="jddybm86GnX8df0sJxGK-40">
          <mxGeometry x="46.3" width="144" height="54.05" as="geometry" />
        </mxCell>
        <mxCell id="jddybm86GnX8df0sJxGK-45" style="edgeStyle=orthogonalEdgeStyle;rounded=0;orthogonalLoop=1;jettySize=auto;html=1;exitX=1;exitY=0.5;exitDx=0;exitDy=0;exitPerimeter=0;entryX=0;entryY=0.5;entryDx=0;entryDy=0;entryPerimeter=0;" edge="1" parent="1" source="jddybm86GnX8df0sJxGK-21" target="jddybm86GnX8df0sJxGK-4">
          <mxGeometry relative="1" as="geometry">
            <Array as="points">
              <mxPoint x="790" y="85" />
              <mxPoint x="790" y="-275" />
            </Array>
          </mxGeometry>
        </mxCell>
        <mxCell id="jddybm86GnX8df0sJxGK-47" style="edgeStyle=orthogonalEdgeStyle;rounded=0;orthogonalLoop=1;jettySize=auto;html=1;exitX=1;exitY=0.5;exitDx=0;exitDy=0;exitPerimeter=0;entryX=0;entryY=0.5;entryDx=0;entryDy=0;entryPerimeter=0;" edge="1" parent="1" source="jddybm86GnX8df0sJxGK-12" target="jddybm86GnX8df0sJxGK-11">
          <mxGeometry relative="1" as="geometry" />
        </mxCell>
        <mxCell id="jddybm86GnX8df0sJxGK-48" style="edgeStyle=orthogonalEdgeStyle;rounded=0;orthogonalLoop=1;jettySize=auto;html=1;exitX=1;exitY=0.5;exitDx=0;exitDy=0;exitPerimeter=0;entryX=0;entryY=0.5;entryDx=0;entryDy=0;entryPerimeter=0;" edge="1" parent="1" source="jddybm86GnX8df0sJxGK-21" target="jddybm86GnX8df0sJxGK-12">
          <mxGeometry relative="1" as="geometry" />
        </mxCell>
        <mxCell id="jddybm86GnX8df0sJxGK-49" style="edgeStyle=orthogonalEdgeStyle;rounded=0;orthogonalLoop=1;jettySize=auto;html=1;exitX=1;exitY=0.5;exitDx=0;exitDy=0;exitPerimeter=0;entryX=0.5;entryY=0;entryDx=0;entryDy=0;" edge="1" parent="1" source="jddybm86GnX8df0sJxGK-4" target="jddybm86GnX8df0sJxGK-10">
          <mxGeometry relative="1" as="geometry" />
        </mxCell>
        <mxCell id="jddybm86GnX8df0sJxGK-50" style="edgeStyle=orthogonalEdgeStyle;rounded=0;orthogonalLoop=1;jettySize=auto;html=1;exitX=1;exitY=0.5;exitDx=0;exitDy=0;exitPerimeter=0;" edge="1" parent="1" source="jddybm86GnX8df0sJxGK-11" target="jddybm86GnX8df0sJxGK-8">
          <mxGeometry relative="1" as="geometry" />
        </mxCell>
        <mxCell id="jddybm86GnX8df0sJxGK-51" style="edgeStyle=orthogonalEdgeStyle;rounded=0;orthogonalLoop=1;jettySize=auto;html=1;exitX=1;exitY=0.5;exitDx=0;exitDy=0;exitPerimeter=0;entryX=0;entryY=0.5;entryDx=0;entryDy=0;entryPerimeter=0;" edge="1" parent="1" source="jddybm86GnX8df0sJxGK-27" target="jddybm86GnX8df0sJxGK-21">
          <mxGeometry relative="1" as="geometry" />
        </mxCell>
        <mxCell id="jddybm86GnX8df0sJxGK-53" style="edgeStyle=orthogonalEdgeStyle;rounded=0;orthogonalLoop=1;jettySize=auto;html=1;exitX=1;exitY=0.5;exitDx=0;exitDy=0;exitPerimeter=0;entryX=0;entryY=0.5;entryDx=0;entryDy=0;entryPerimeter=0;" edge="1" parent="1" source="jddybm86GnX8df0sJxGK-25" target="jddybm86GnX8df0sJxGK-21">
          <mxGeometry relative="1" as="geometry" />
        </mxCell>
        <mxCell id="jddybm86GnX8df0sJxGK-55" style="edgeStyle=orthogonalEdgeStyle;rounded=0;orthogonalLoop=1;jettySize=auto;html=1;exitX=1;exitY=0.5;exitDx=0;exitDy=0;exitPerimeter=0;entryX=0;entryY=0.5;entryDx=0;entryDy=0;entryPerimeter=0;" edge="1" parent="1" source="jddybm86GnX8df0sJxGK-17" target="jddybm86GnX8df0sJxGK-21">
          <mxGeometry relative="1" as="geometry" />
        </mxCell>
        <mxCell id="jddybm86GnX8df0sJxGK-56" style="edgeStyle=orthogonalEdgeStyle;rounded=0;orthogonalLoop=1;jettySize=auto;html=1;exitX=0.5;exitY=0;exitDx=0;exitDy=0;entryX=0.5;entryY=1;entryDx=0;entryDy=0;entryPerimeter=0;" edge="1" parent="1" source="jddybm86GnX8df0sJxGK-20" target="jddybm86GnX8df0sJxGK-22">
          <mxGeometry relative="1" as="geometry" />
        </mxCell>
        <mxCell id="jddybm86GnX8df0sJxGK-57" style="edgeStyle=orthogonalEdgeStyle;rounded=0;orthogonalLoop=1;jettySize=auto;html=1;exitX=1;exitY=0.5;exitDx=0;exitDy=0;exitPerimeter=0;entryX=0;entryY=0.5;entryDx=0;entryDy=0;entryPerimeter=0;" edge="1" parent="1" source="jddybm86GnX8df0sJxGK-15" target="jddybm86GnX8df0sJxGK-17">
          <mxGeometry relative="1" as="geometry" />
        </mxCell>
        <mxCell id="jddybm86GnX8df0sJxGK-58" style="edgeStyle=orthogonalEdgeStyle;rounded=0;orthogonalLoop=1;jettySize=auto;html=1;exitX=0.5;exitY=1;exitDx=0;exitDy=0;exitPerimeter=0;entryX=0.5;entryY=1;entryDx=0;entryDy=0;entryPerimeter=0;" edge="1" parent="1" source="jddybm86GnX8df0sJxGK-15" target="jddybm86GnX8df0sJxGK-11">
          <mxGeometry relative="1" as="geometry">
            <Array as="points">
              <mxPoint x="-45" y="200" />
              <mxPoint x="1250" y="200" />
            </Array>
          </mxGeometry>
        </mxCell>
      </root>
    </mxGraphModel>
  </diagram>
</mxfile>
